<svg xmlns="http://www.w3.org/2000/svg" width="534" height="192" fill="none" viewBox="0 0 534 192">
    <path fill="#dde" d="M0 0h534v192H0z"/>
    <path fill="#eef" d="M2 0h530v190H2z"/>
    <path fill="#fff" d="M4 2h526v184H4z"/>
    <path fill="#778" d="M494 166h32v16h-32z"/>
    <path fill="#889" d="M496 166h28v14h-28z"/>
    <path fill="#99a" d="M498 168h24v8h-24z"/>
    <path fill="#778" d="M458 166h32v16h-32z"/>
    <path fill="#889" d="M460 166h28v14h-28z"/>
    <path fill="#99a" d="M462 168h24v8h-24z"/>
    <path fill="#778" d="M458 150h32v16h-32z"/>
    <path fill="#889" d="M460 150h28v14h-28z"/>
    <path fill="#99a" d="M462 152h24v8h-24z"/>
    <path fill="#778" d="M422 166h32v16h-32z"/>
    <path fill="#889" d="M424 166h28v14h-28z"/>
    <path fill="#99a" d="M426 168h24v8h-24z"/>
    <path fill="#778" d="M386 150h32v32h-32z"/>
    <path fill="#889" d="M388 150h28v30h-28z"/>
    <path fill="#99a" d="M390 152h24v24h-24z"/>
    <path fill="#778" d="M341 150h41v32h-41z"/>
    <path fill="#889" d="M343 150h37v30h-37z"/>
    <path fill="#99a" d="M345 152h33v24h-33z"/>
    <path fill="#778" d="M161 150h176v32H161z"/>
    <path fill="#889" d="M163 150h172v30H163z"/>
    <path fill="#99a" d="M165 152h168v24H165z"/>
    <path fill="#778" d="M116 150h41v32h-41z"/>
    <path fill="#889" d="M118 150h37v30h-37z"/>
    <path fill="#99a" d="M120 152h33v24h-33z"/>
    <path fill="#778" d="M80 150h32v32H80z"/>
    <path fill="#889" d="M82 150h28v30H82z"/>
    <path fill="#99a" d="M84 152h24v24H84z"/>
    <path fill="#778" d="M44 150h32v32H44z"/>
    <path fill="#889" d="M46 150h28v30H46z"/>
    <path fill="#99a" d="M48 152h24v24H48z"/>
    <path fill="#778" d="M8 150h32v32H8z"/>
    <path fill="#889" d="M10 150h28v30H10z"/>
    <path fill="#99a" d="M12 152h24v24H12z"/>
    <path fill="#aab" d="M449 114h77v32h-77z"/>
    <path fill="#bbc" d="M451 114h73v30h-73z"/>
    <path fill="#ccd" d="M453 116h69v24h-69z"/>
    <path fill="#aab" d="M413 114h32v32h-32z"/>
    <path fill="#bbc" d="M415 114h28v30h-28z"/>
    <path fill="#ccd" d="M417 116h24v24h-24z"/>
    <path fill="#aab" d="M377 114h32v32h-32z"/>
    <path fill="#bbc" d="M379 114h28v30h-28z"/>
    <path fill="#ccd" d="M381 116h24v24h-24z"/>
    <path fill="#aab" d="M341 114h32v32h-32z"/>
    <path fill="#bbc" d="M343 114h28v30h-28z"/>
    <path fill="#ccd" d="M345 116h24v24h-24z"/>
    <path fill="#6bd" d="M305 114h32v32h-32z"/>
    <path fill="#7ce" d="M307 114h28v30h-28z"/>
    <path fill="#8df" d="M309 116h24v24h-24z"/>
    <path fill="#aab" d="M269 114h32v32h-32z"/>
    <path fill="#bbc" d="M271 114h28v30h-28z"/>
    <path fill="#ccd" d="M273 116h24v24h-24z"/>
    <path fill="#58b" d="M233 114h32v32h-32z"/>
    <path fill="#69c" d="M235 114h28v30h-28z"/>
    <path fill="#7ad" d="M237 116h24v24h-24z"/>
    <path fill="#aab" d="M197 114h32v32h-32z"/>
    <path fill="#bbc" d="M199 114h28v30h-28z"/>
    <path fill="#ccd" d="M201 116h24v24h-24z"/>
    <path fill="#aab" d="M161 114h32v32h-32z"/>
    <path fill="#bbc" d="M163 114h28v30h-28z"/>
    <path fill="#ccd" d="M165 116h24v24h-24z"/>
    <path fill="#aab" d="M125 114h32v32h-32z"/>
    <path fill="#bbc" d="M127 114h28v30h-28z"/>
    <path fill="#ccd" d="M129 116h24v24h-24z"/>
    <path fill="#aab" d="M89 114h32v32H89z"/>
    <path fill="#bbc" d="M91 114h28v30H91z"/>
    <path fill="#ccd" d="M93 116h24v24H93z"/>
    <path fill="#aab" d="M8 114h77v32H8z"/>
    <path fill="#bbc" d="M10 114h73v30H10z"/>
    <path fill="#ccd" d="M12 116h69v24H12z"/>
    <path fill="#aab" d="M467 78h59v32h-59z"/>
    <path fill="#bbc" d="M469 78h55v30h-55z"/>
    <path fill="#ccd" d="M471 80h51v24h-51z"/>
    <path fill="#aab" d="M431 78h32v32h-32z"/>
    <path fill="#bbc" d="M433 78h28v30h-28z"/>
    <path fill="#ccd" d="M435 80h24v24h-24z"/>
    <path fill="#aab" d="M395 78h32v32h-32z"/>
    <path fill="#bbc" d="M397 78h28v30h-28z"/>
    <path fill="#ccd" d="M399 80h24v24h-24z"/>
    <path fill="#aab" d="M359 78h32v32h-32z"/>
    <path fill="#bbc" d="M361 78h28v30h-28z"/>
    <path fill="#ccd" d="M363 80h24v24h-24z"/>
    <path fill="#dc6" d="M323 78h32v32h-32z"/>
    <path fill="#ed7" d="M325 78h28v30h-28z"/>
    <path fill="#fe8" d="M327 80h24v24h-24z"/>
    <path fill="#aab" d="M287 78h32v32h-32z"/>
    <path fill="#bbc" d="M289 78h28v30h-28z"/>
    <path fill="#ccd" d="M291 80h24v24h-24z"/>
    <path fill="#bbc" d="M297 92h12v8h-12z"/>
    <path fill="#fff" d="M299 94h8v4h-8z"/>
    <path fill="#aab" d="M251 78h32v32h-32z"/>
    <path fill="#bbc" d="M253 78h28v30h-28z"/>
    <path fill="#ccd" d="M255 80h24v24h-24z"/>
    <path fill="#aab" d="M215 78h32v32h-32z"/>
    <path fill="#bbc" d="M217 78h28v30h-28z"/>
    <path fill="#ccd" d="M219 80h24v24h-24z"/>
    <path fill="#d66" d="M179 78h32v32h-32z"/>
    <path fill="#e77" d="M181 78h28v30h-28z"/>
    <path fill="#f88" d="M183 80h24v24h-24z"/>
    <path fill="#e77" d="M189 92h12v8h-12z"/>
    <path fill="#fff" d="M191 94h8v4h-8z"/>
    <path fill="#aab" d="M143 78h32v32h-32z"/>
    <path fill="#bbc" d="M145 78h28v30h-28z"/>
    <path fill="#ccd" d="M147 80h24v24h-24z"/>
    <path fill="#aab" d="M107 78h32v32h-32z"/>
    <path fill="#bbc" d="M109 78h28v30h-28z"/>
    <path fill="#ccd" d="M111 80h24v24h-24z"/>
    <path fill="#aab" d="M71 78h32v32H71z"/>
    <path fill="#bbc" d="M73 78h28v30H73z"/>
    <path fill="#ccd" d="M75 80h24v24H75z"/>
    <path fill="#aab" d="M8 78h59v32H8z"/>
    <path fill="#bbc" d="M10 78h55v30H10z"/>
    <path fill="#ccd" d="M12 80h51v24H12z"/>
    <path fill="#aab" d="M494 42h32v32h-32z"/>
    <path fill="#bbc" d="M496 42h28v30h-28z"/>
    <path fill="#ccd" d="M498 44h24v24h-24z"/>
    <path fill="#aab" d="M458 42h32v32h-32z"/>
    <path fill="#bbc" d="M460 42h28v30h-28z"/>
    <path fill="#ccd" d="M462 44h24v24h-24z"/>
    <path fill="#aab" d="M422 42h32v32h-32z"/>
    <path fill="#bbc" d="M424 42h28v30h-28z"/>
    <path fill="#ccd" d="M426 44h24v24h-24z"/>
    <path fill="#aab" d="M386 42h32v32h-32z"/>
    <path fill="#bbc" d="M388 42h28v30h-28z"/>
    <path fill="#ccd" d="M390 44h24v24h-24z"/>
    <path fill="#aab" d="M350 42h32v32h-32z"/>
    <path fill="#bbc" d="M352 42h28v30h-28z"/>
    <path fill="#ccd" d="M354 44h24v24h-24z"/>
    <path fill="#6a6" d="M314 42h32v32h-32z"/>
    <path fill="#7b7" d="M316 42h28v30h-28z"/>
    <path fill="#8c8" d="M318 44h24v24h-24z"/>
    <path fill="#da4" d="M278 42h32v32h-32z"/>
    <path fill="#eb5" d="M280 42h28v30h-28z"/>
    <path fill="#fc6" d="M282 44h24v24h-24z"/>
    <path fill="#aab" d="M242 42h32v32h-32z"/>
    <path fill="#bbc" d="M244 42h28v30h-28z"/>
    <path fill="#ccd" d="M246 44h24v24h-24z"/>
    <path fill="#aab" d="M206 42h32v32h-32z"/>
    <path fill="#bbc" d="M208 42h28v30h-28z"/>
    <path fill="#ccd" d="M210 44h24v24h-24z"/>
    <path fill="#b6b" d="M170 42h32v32h-32z"/>
    <path fill="#c7c" d="M172 42h28v30h-28z"/>
    <path fill="#d8d" d="M174 44h24v24h-24z"/>
    <path fill="#aab" d="M134 42h32v32h-32z"/>
    <path fill="#bbc" d="M136 42h28v30h-28z"/>
    <path fill="#ccd" d="M138 44h24v24h-24z"/>
    <path fill="#aab" d="M98 42h32v32H98z"/>
    <path fill="#bbc" d="M100 42h28v30h-28z"/>
    <path fill="#ccd" d="M102 44h24v24h-24z"/>
    <path fill="#aab" d="M62 42h32v32H62z"/>
    <path fill="#bbc" d="M64 42h28v30H64z"/>
    <path fill="#ccd" d="M66 44h24v24H66z"/>
    <path fill="#aab" d="M8 42h50v32H8z"/>
    <path fill="#bbc" d="M10 42h46v30H10z"/>
    <path fill="#ccd" d="M12 44h42v24H12z"/>
    <path fill="#aab" d="M476 6h50v32h-50z"/>
    <path fill="#bbc" d="M478 6h46v30h-46z"/>
    <path fill="#ccd" d="M480 8h42v24h-42z"/>
    <path fill="#aab" d="M440 6h32v32h-32z"/>
    <path fill="#bbc" d="M442 6h28v30h-28z"/>
    <path fill="#ccd" d="M444 8h24v24h-24z"/>
    <path fill="#aab" d="M404 6h32v32h-32z"/>
    <path fill="#bbc" d="M406 6h28v30h-28z"/>
    <path fill="#ccd" d="M408 8h24v24h-24z"/>
    <path fill="#aab" d="M368 6h32v32h-32z"/>
    <path fill="#bbc" d="M370 6h28v30h-28z"/>
    <path fill="#ccd" d="M372 8h24v24h-24z"/>
    <path fill="#aab" d="M332 6h32v32h-32z"/>
    <path fill="#bbc" d="M334 6h28v30h-28z"/>
    <path fill="#ccd" d="M336 8h24v24h-24z"/>
    <path fill="#aab" d="M296 6h32v32h-32z"/>
    <path fill="#bbc" d="M298 6h28v30h-28z"/>
    <path fill="#ccd" d="M300 8h24v24h-24z"/>
    <path fill="#aab" d="M260 6h32v32h-32z"/>
    <path fill="#bbc" d="M262 6h28v30h-28z"/>
    <path fill="#ccd" d="M264 8h24v24h-24z"/>
    <path fill="#aab" d="M224 6h32v32h-32z"/>
    <path fill="#bbc" d="M226 6h28v30h-28z"/>
    <path fill="#ccd" d="M228 8h24v24h-24z"/>
    <path fill="#aab" d="M188 6h32v32h-32z"/>
    <path fill="#bbc" d="M190 6h28v30h-28z"/>
    <path fill="#ccd" d="M192 8h24v24h-24z"/>
    <path fill="#aab" d="M152 6h32v32h-32z"/>
    <path fill="#bbc" d="M154 6h28v30h-28z"/>
    <path fill="#ccd" d="M156 8h24v24h-24z"/>
    <path fill="#aab" d="M116 6h32v32h-32z"/>
    <path fill="#bbc" d="M118 6h28v30h-28z"/>
    <path fill="#ccd" d="M120 8h24v24h-24z"/>
    <path fill="#aab" d="M80 6h32v32H80z"/>
    <path fill="#bbc" d="M82 6h28v30H82z"/>
    <path fill="#ccd" d="M84 8h24v24H84z"/>
    <path fill="#aab" d="M44 6h32v32H44z"/>
    <path fill="#bbc" d="M46 6h28v30H46z"/>
    <path fill="#ccd" d="M48 8h24v24H48z"/>
    <path fill="#aab" d="M8 6h32v32H8z"/>
    <path fill="#bbc" d="M10 6h28v30H10z"/>
    <path fill="#ccd" d="M12 8h24v24H12z"/>
</svg>
