<svg xmlns="http://www.w3.org/2000/svg" width="267" height="192" fill="none" viewBox="0 0 267 192">
    <path fill="#dde" d="M0 0h258v40h-18v36h9v36h18v80H0z"/>
    <path fill="#eef" d="M2 0h255v39h-18v38h9v36h18v77H2z"/>
    <path fill="#fff" d="M4 2h252v36h-18v40h9v36h18v72H4z"/>
    <path fill="#778" d="M161 150h104v32H161z"/>
    <path fill="#889" d="M163 150h100v30H163z"/>
    <path fill="#99a" d="M165 152h96v24h-96z"/>
    <path fill="#778" d="M116 150h41v32h-41z"/>
    <path fill="#889" d="M118 150h37v30h-37z"/>
    <path fill="#99a" d="M120 152h33v24h-33z"/>
    <path fill="#778" d="M80 150h32v32H80z"/>
    <path fill="#889" d="M82 150h28v30H82z"/>
    <path fill="#99a" d="M84 152h24v24H84z"/>
    <path fill="#778" d="M44 150h32v32H44z"/>
    <path fill="#889" d="M46 150h28v30H46z"/>
    <path fill="#99a" d="M48 152h24v24H48z"/>
    <path fill="#778" d="M8 150h32v32H8z"/>
    <path fill="#889" d="M10 150h28v30H10z"/>
    <path fill="#99a" d="M12 152h24v24H12z"/>
    <path fill="#58b" d="M233 114h32v32h-32z"/>
    <path fill="#69c" d="M235 114h28v30h-28z"/>
    <path fill="#7ad" d="M237 116h24v24h-24z"/>
    <path fill="#aab" d="M197 114h32v32h-32z"/>
    <path fill="#bbc" d="M199 114h28v30h-28z"/>
    <path fill="#ccd" d="M201 116h24v24h-24z"/>
    <path fill="#aab" d="M161 114h32v32h-32z"/>
    <path fill="#bbc" d="M163 114h28v30h-28z"/>
    <path fill="#ccd" d="M165 116h24v24h-24z"/>
    <path fill="#aab" d="M125 114h32v32h-32z"/>
    <path fill="#bbc" d="M127 114h28v30h-28z"/>
    <path fill="#ccd" d="M129 116h24v24h-24z"/>
    <path fill="#aab" d="M89 114h32v32H89z"/>
    <path fill="#bbc" d="M91 114h28v30H91z"/>
    <path fill="#ccd" d="M93 116h24v24H93z"/>
    <path fill="#aab" d="M8 114h77v32H8z"/>
    <path fill="#bbc" d="M10 114h73v30H10z"/>
    <path fill="#ccd" d="M12 116h69v24H12z"/>
    <path fill="#aab" d="M215 78h32v32h-32z"/>
    <path fill="#bbc" d="M217 78h28v30h-28z"/>
    <path fill="#ccd" d="M219 80h24v24h-24z"/>
    <path fill="#d66" d="M179 78h32v32h-32z"/>
    <path fill="#e77" d="M181 78h28v30h-28z"/>
    <path fill="#f88" d="M183 80h24v24h-24z"/>
    <path fill="#e77" d="M189 92h12v8h-12z"/>
    <path fill="#fff" d="M191 94h8v4h-8z"/>
    <path fill="#aab" d="M143 78h32v32h-32z"/>
    <path fill="#bbc" d="M145 78h28v30h-28z"/>
    <path fill="#ccd" d="M147 80h24v24h-24z"/>
    <path fill="#aab" d="M107 78h32v32h-32z"/>
    <path fill="#bbc" d="M109 78h28v30h-28z"/>
    <path fill="#ccd" d="M111 80h24v24h-24z"/>
    <path fill="#aab" d="M71 78h32v32H71z"/>
    <path fill="#bbc" d="M73 78h28v30H73z"/>
    <path fill="#ccd" d="M75 80h24v24H75z"/>
    <path fill="#aab" d="M8 78h59v32H8z"/>
    <path fill="#bbc" d="M10 78h55v30H10z"/>
    <path fill="#ccd" d="M12 80h51v24H12z"/>
    <path fill="#aab" d="M206 42h32v32h-32z"/>
    <path fill="#bbc" d="M208 42h28v30h-28z"/>
    <path fill="#ccd" d="M210 44h24v24h-24z"/>
    <path fill="#b6b" d="M170 42h32v32h-32z"/>
    <path fill="#c7c" d="M172 42h28v30h-28z"/>
    <path fill="#d8d" d="M174 44h24v24h-24z"/>
    <path fill="#aab" d="M134 42h32v32h-32z"/>
    <path fill="#bbc" d="M136 42h28v30h-28z"/>
    <path fill="#ccd" d="M138 44h24v24h-24z"/>
    <path fill="#aab" d="M98 42h32v32H98z"/>
    <path fill="#bbc" d="M100 42h28v30h-28z"/>
    <path fill="#ccd" d="M102 44h24v24h-24z"/>
    <path fill="#aab" d="M62 42h32v32H62z"/>
    <path fill="#bbc" d="M64 42h28v30H64z"/>
    <path fill="#ccd" d="M66 44h24v24H66z"/>
    <path fill="#aab" d="M8 42h50v32H8z"/>
    <path fill="#bbc" d="M10 42h46v30H10z"/>
    <path fill="#ccd" d="M12 44h42v24H12z"/>
    <path fill="#aab" d="M224 6h32v32h-32z"/>
    <path fill="#bbc" d="M226 6h28v30h-28z"/>
    <path fill="#ccd" d="M228 8h24v24h-24z"/>
    <path fill="#aab" d="M188 6h32v32h-32z"/>
    <path fill="#bbc" d="M190 6h28v30h-28z"/>
    <path fill="#ccd" d="M192 8h24v24h-24z"/>
    <path fill="#aab" d="M152 6h32v32h-32z"/>
    <path fill="#bbc" d="M154 6h28v30h-28z"/>
    <path fill="#ccd" d="M156 8h24v24h-24z"/>
    <path fill="#aab" d="M116 6h32v32h-32z"/>
    <path fill="#bbc" d="M118 6h28v30h-28z"/>
    <path fill="#ccd" d="M120 8h24v24h-24z"/>
    <path fill="#aab" d="M80 6h32v32H80z"/>
    <path fill="#bbc" d="M82 6h28v30H82z"/>
    <path fill="#ccd" d="M84 8h24v24H84z"/>
    <path fill="#aab" d="M44 6h32v32H44z"/>
    <path fill="#bbc" d="M46 6h28v30H46z"/>
    <path fill="#ccd" d="M48 8h24v24H48z"/>
    <path fill="#aab" d="M8 6h32v32H8z"/>
    <path fill="#bbc" d="M10 6h28v30H10z"/>
    <path fill="#ccd" d="M12 8h24v24H12z"/>
</svg>
