<svg xmlns="http://www.w3.org/2000/svg" width="276" height="228" fill="none" viewBox="0 0 276 228">
    <path fill="#dde" d="M0 184h267v44H0zM0 148h267v36H0zM0 112h249v36H0zM0 76h240v36H0zM0 40h258v36H0zM0 0h276v40H0V0"/>
    <path fill="#eef" d="M2 183h264v43H2zM2 149h264v34H2zM2 113h246v36H2zM2 75h237v38H2zM2 39h255v36H2zM2 0h273v39H2z"/>
    <path fill="#fff" d="M4 182h261v40H4zM4 114h243v36H4zM4 74h234v40H4zM4 38h252v36H4zM4 2h270v36H4zM265 182H4v-32h261z"/>
    <path fill="#778" d="M161 186h104v32H161z"/>
    <path fill="#889" d="M163 186h100v30H163z"/>
    <path fill="#99a" d="M165 188h96v24h-96z"/>
    <path fill="#778" d="M116 186h41v32h-41z"/>
    <path fill="#889" d="M118 186h37v30h-37z"/>
    <path fill="#99a" d="M120 188h33v24h-33z"/>
    <path fill="#778" d="M80 186h32v32H80z"/>
    <path fill="#889" d="M82 186h28v30H82z"/>
    <path fill="#99a" d="M84 188h24v24H84z"/>
    <path fill="#778" d="M44 186h32v32H44z"/>
    <path fill="#889" d="M46 186h28v30H46z"/>
    <path fill="#99a" d="M48 188h24v24H48z"/>
    <path fill="#778" d="M8 186h32v32H8z"/>
    <path fill="#889" d="M10 186h28v30H10z"/>
    <path fill="#99a" d="M12 188h24v24H12z"/>
    <path fill="#aab" d="M8 150h77v32H8z"/>
    <path fill="#bbc" d="M10 150h73v30H10z"/>
    <path fill="#ccd" d="M12 152h69v24H12z"/>
    <path fill="#58b" d="M233 150h32v32h-32z"/>
    <path fill="#69c" d="M235 150h28v30h-28z"/>
    <path fill="#7ad" d="M237 152h24v24h-24z"/>
    <path fill="#aab" d="M197 150h32v32h-32z"/>
    <path fill="#bbc" d="M199 150h28v30h-28z"/>
    <path fill="#ccd" d="M201 152h24v24h-24z"/>
    <path fill="#aab" d="M161 150h32v32h-32z"/>
    <path fill="#bbc" d="M163 150h28v30h-28z"/>
    <path fill="#ccd" d="M165 152h24v24h-24z"/>
    <path fill="#aab" d="M125 150h32v32h-32z"/>
    <path fill="#bbc" d="M127 150h28v30h-28z"/>
    <path fill="#ccd" d="M129 152h24v24h-24z"/>
    <path fill="#aab" d="M89 150h32v32H89z"/>
    <path fill="#bbc" d="M91 150h28v30H91z"/>
    <path fill="#ccd" d="M93 152h24v24H93z"/>
    <path fill="#aab" d="M215 114h32v32h-32z"/>
    <path fill="#bbc" d="M217 114h28v30h-28z"/>
    <path fill="#ccd" d="M219 116h24v24h-24z"/>
    <path fill="#d66" d="M179 114h32v32h-32z"/>
    <path fill="#e77" d="M181 114h28v30h-28z"/>
    <path fill="#f88" d="M183 116h24v24h-24z"/>
    <path fill="#e77" d="M189 128h12v8h-12z"/>
    <path fill="#fff" d="M191 130h8v4h-8z"/>
    <path fill="#aab" d="M143 114h32v32h-32z"/>
    <path fill="#bbc" d="M145 114h28v30h-28z"/>
    <path fill="#ccd" d="M147 116h24v24h-24z"/>
    <path fill="#aab" d="M107 114h32v32h-32z"/>
    <path fill="#bbc" d="M109 114h28v30h-28z"/>
    <path fill="#ccd" d="M111 116h24v24h-24z"/>
    <path fill="#aab" d="M71 114h32v32H71z"/>
    <path fill="#bbc" d="M73 114h28v30H73z"/>
    <path fill="#ccd" d="M75 116h24v24H75z"/>
    <path fill="#aab" d="M8 114h59v32H8z"/>
    <path fill="#bbc" d="M10 114h55v30H10z"/>
    <path fill="#ccd" d="M12 116h51v24H12z"/>
    <path fill="#aab" d="M206 78h32v32h-32z"/>
    <path fill="#bbc" d="M208 78h28v30h-28z"/>
    <path fill="#ccd" d="M210 80h24v24h-24z"/>
    <path fill="#b6b" d="M170 78h32v32h-32z"/>
    <path fill="#c7c" d="M172 78h28v30h-28z"/>
    <path fill="#d8d" d="M174 80h24v24h-24z"/>
    <path fill="#aab" d="M134 78h32v32h-32z"/>
    <path fill="#bbc" d="M136 78h28v30h-28z"/>
    <path fill="#ccd" d="M138 80h24v24h-24z"/>
    <path fill="#aab" d="M98 78h32v32H98z"/>
    <path fill="#bbc" d="M100 78h28v30h-28z"/>
    <path fill="#ccd" d="M102 80h24v24h-24z"/>
    <path fill="#aab" d="M62 78h32v32H62z"/>
    <path fill="#bbc" d="M64 78h28v30H64z"/>
    <path fill="#ccd" d="M66 80h24v24H66z"/>
    <path fill="#aab" d="M8 78h50v32H8z"/>
    <path fill="#bbc" d="M10 78h46v30H10z"/>
    <path fill="#ccd" d="M12 80h42v24H12z"/>
    <path fill="#aab" d="M224 42h32v32h-32z"/>
    <path fill="#bbc" d="M226 42h28v30h-28z"/>
    <path fill="#ccd" d="M228 44h24v24h-24z"/>
    <path fill="#aab" d="M188 42h32v32h-32z"/>
    <path fill="#bbc" d="M190 42h28v30h-28z"/>
    <path fill="#ccd" d="M192 44h24v24h-24z"/>
    <path fill="#aab" d="M152 42h32v32h-32z"/>
    <path fill="#bbc" d="M154 42h28v30h-28z"/>
    <path fill="#ccd" d="M156 44h24v24h-24z"/>
    <path fill="#aab" d="M116 42h32v32h-32z"/>
    <path fill="#bbc" d="M118 42h28v30h-28z"/>
    <path fill="#ccd" d="M120 44h24v24h-24z"/>
    <path fill="#aab" d="M80 42h32v32H80z"/>
    <path fill="#bbc" d="M82 42h28v30H82z"/>
    <path fill="#ccd" d="M84 44h24v24H84z"/>
    <path fill="#aab" d="M44 42h32v32H44z"/>
    <path fill="#bbc" d="M46 42h28v30H46z"/>
    <path fill="#ccd" d="M48 44h24v24H48z"/>
    <path fill="#aab" d="M8 42h32v32H8z"/>
    <path fill="#bbc" d="M10 42h28v30H10z"/>
    <path fill="#ccd" d="M12 44h24v24H12z"/>
    <path fill="#aab" d="M242 6h32v32h-32z"/>
    <path fill="#bbc" d="M244 6h28v30h-28z"/>
    <path fill="#ccd" d="M246 8h24v24h-24z"/>
    <path fill="#aab" d="M206 6h32v32h-32z"/>
    <path fill="#bbc" d="M208 6h28v30h-28z"/>
    <path fill="#ccd" d="M210 8h24v24h-24z"/>
    <path fill="#aab" d="M170 6h32v32h-32z"/>
    <path fill="#bbc" d="M172 6h28v30h-28z"/>
    <path fill="#ccd" d="M174 8h24v24h-24z"/>
    <path fill="#aab" d="M134 6h32v32h-32z"/>
    <path fill="#bbc" d="M136 6h28v30h-28z"/>
    <path fill="#ccd" d="M138 8h24v24h-24z"/>
    <path fill="#aab" d="M98 6h32v32H98z"/>
    <path fill="#bbc" d="M100 6h28v30h-28z"/>
    <path fill="#ccd" d="M102 8h24v24h-24z"/>
    <path fill="#aab" d="M62 6h32v32H62z"/>
    <path fill="#bbc" d="M64 6h28v30H64z"/>
    <path fill="#ccd" d="M66 8h24v24H66z"/>
    <path fill="#aab" d="M8 6h50v32H8z"/>
    <path fill="#bbc" d="M10 6h46v30H10z"/>
    <path fill="#ccd" d="M12 8h42v24H12z"/>
</svg>
