<svg xmlns="http://www.w3.org/2000/svg" width="294" height="192" fill="none" viewBox="0 0 294 192">
    <path fill="#dde" d="M18 0h276v192H27v-80H9V76H0V40h18z"/>
    <path fill="#eef" d="M28 111H10V75H1V41h18V0h273v190H28z"/>
    <path fill="#fff" d="M20 2h270v184H29v-76H11V74H2V42h18z"/>
    <path fill="#778" d="M254 166h32v16h-32z"/>
    <path fill="#889" d="M256 166h28v14h-28z"/>
    <path fill="#99a" d="M258 168h24v8h-24z"/>
    <path fill="#778" d="M218 166h32v16h-32z"/>
    <path fill="#889" d="M220 166h28v14h-28z"/>
    <path fill="#99a" d="M222 168h24v8h-24z"/>
    <path fill="#778" d="M218 150h32v16h-32z"/>
    <path fill="#889" d="M220 150h28v14h-28z"/>
    <path fill="#99a" d="M222 152h24v8h-24z"/>
    <path fill="#778" d="M182 166h32v16h-32z"/>
    <path fill="#889" d="M184 166h28v14h-28z"/>
    <path fill="#99a" d="M186 168h24v8h-24z"/>
    <path fill="#778" d="M146 150h32v32h-32z"/>
    <path fill="#889" d="M148 150h28v30h-28z"/>
    <path fill="#99a" d="M150 152h24v24h-24z"/>
    <path fill="#778" d="M101 150h41v32h-41z"/>
    <path fill="#889" d="M103 150h37v30h-37z"/>
    <path fill="#99a" d="M105 152h33v24h-33z"/>
    <path fill="#778" d="M29 150h68v32H29z"/>
    <path fill="#889" d="M31 150h64v30H31z"/>
    <path fill="#99a" d="M33 152h60v24H33z"/>
    <path fill="#aab" d="M209 114h77v32h-77z"/>
    <path fill="#bbc" d="M211 114h73v30h-73z"/>
    <path fill="#ccd" d="M213 116h69v24h-69z"/>
    <path fill="#aab" d="M173 114h32v32h-32z"/>
    <path fill="#bbc" d="M175 114h28v30h-28z"/>
    <path fill="#ccd" d="M177 116h24v24h-24z"/>
    <path fill="#aab" d="M137 114h32v32h-32z"/>
    <path fill="#bbc" d="M139 114h28v30h-28z"/>
    <path fill="#ccd" d="M141 116h24v24h-24z"/>
    <path fill="#aab" d="M101 114h32v32h-32z"/>
    <path fill="#bbc" d="M103 114h28v30h-28z"/>
    <path fill="#ccd" d="M105 116h24v24h-24z"/>
    <path fill="#6bd" d="M65 114h32v32H65z"/>
    <path fill="#7ce" d="M67 114h28v30H67z"/>
    <path fill="#8df" d="M69 116h24v24H69z"/>
    <path fill="#aab" d="M29 114h32v32H29z"/>
    <path fill="#bbc" d="M31 114h28v30H31z"/>
    <path fill="#ccd" d="M33 116h24v24H33z"/>
    <path fill="#aab" d="M227 78h59v32h-59z"/>
    <path fill="#bbc" d="M229 78h55v30h-55z"/>
    <path fill="#ccd" d="M231 80h51v24h-51z"/>
    <path fill="#aab" d="M191 78h32v32h-32z"/>
    <path fill="#bbc" d="M193 78h28v30h-28z"/>
    <path fill="#ccd" d="M195 80h24v24h-24z"/>
    <path fill="#aab" d="M155 78h32v32h-32z"/>
    <path fill="#bbc" d="M157 78h28v30h-28z"/>
    <path fill="#ccd" d="M159 80h24v24h-24z"/>
    <path fill="#aab" d="M119 78h32v32h-32z"/>
    <path fill="#bbc" d="M121 78h28v30h-28z"/>
    <path fill="#ccd" d="M123 80h24v24h-24z"/>
    <path fill="#dc6" d="M83 78h32v32H83z"/>
    <path fill="#ed7" d="M85 78h28v30H85z"/>
    <path fill="#fe8" d="M87 80h24v24H87z"/>
    <path fill="#aab" d="M47 78h32v32H47z"/>
    <path fill="#bbc" d="M49 78h28v30H49z"/>
    <path fill="#ccd" d="M51 80h24v24H51z"/>
    <path fill="#bbc" d="M57 92h12v8H57z"/>
    <path fill="#fff" d="M59 94h8v4h-8z"/>
    <path fill="#aab" d="M11 78h32v32H11z"/>
    <path fill="#bbc" d="M13 78h28v30H13z"/>
    <path fill="#ccd" d="M15 80h24v24H15z"/>
    <path fill="#aab" d="M254 42h32v32h-32z"/>
    <path fill="#bbc" d="M256 42h28v30h-28z"/>
    <path fill="#ccd" d="M258 44h24v24h-24z"/>
    <path fill="#aab" d="M218 42h32v32h-32z"/>
    <path fill="#bbc" d="M220 42h28v30h-28z"/>
    <path fill="#ccd" d="M222 44h24v24h-24z"/>
    <path fill="#aab" d="M182 42h32v32h-32z"/>
    <path fill="#bbc" d="M184 42h28v30h-28z"/>
    <path fill="#ccd" d="M186 44h24v24h-24z"/>
    <path fill="#aab" d="M146 42h32v32h-32z"/>
    <path fill="#bbc" d="M148 42h28v30h-28z"/>
    <path fill="#ccd" d="M150 44h24v24h-24z"/>
    <path fill="#aab" d="M110 42h32v32h-32z"/>
    <path fill="#bbc" d="M112 42h28v30h-28z"/>
    <path fill="#ccd" d="M114 44h24v24h-24z"/>
    <path fill="#6a6" d="M74 42h32v32H74z"/>
    <path fill="#7b7" d="M76 42h28v30H76z"/>
    <path fill="#8c8" d="M78 44h24v24H78z"/>
    <path fill="#da4" d="M38 42h32v32H38z"/>
    <path fill="#eb5" d="M40 42h28v30H40z"/>
    <path fill="#fc6" d="M42 44h24v24H42z"/>
    <path fill="#aab" d="M2 42h32v32H2z"/>
    <path fill="#bbc" d="M4 42h28v30H4z"/>
    <path fill="#ccd" d="M6 44h24v24H6z"/>
    <path fill="#aab" d="M236 6h50v32h-50z"/>
    <path fill="#bbc" d="M238 6h46v30h-46z"/>
    <path fill="#ccd" d="M240 8h42v24h-42z"/>
    <path fill="#aab" d="M200 6h32v32h-32z"/>
    <path fill="#bbc" d="M202 6h28v30h-28z"/>
    <path fill="#ccd" d="M204 8h24v24h-24z"/>
    <path fill="#aab" d="M164 6h32v32h-32z"/>
    <path fill="#bbc" d="M166 6h28v30h-28z"/>
    <path fill="#ccd" d="M168 8h24v24h-24z"/>
    <path fill="#aab" d="M128 6h32v32h-32z"/>
    <path fill="#bbc" d="M130 6h28v30h-28z"/>
    <path fill="#ccd" d="M132 8h24v24h-24z"/>
    <path fill="#aab" d="M92 6h32v32H92z"/>
    <path fill="#bbc" d="M94 6h28v30H94z"/>
    <path fill="#ccd" d="M96 8h24v24H96z"/>
    <path fill="#aab" d="M56 6h32v32H56z"/>
    <path fill="#bbc" d="M58 6h28v30H58z"/>
    <path fill="#ccd" d="M60 8h24v24H60z"/>
    <path fill="#aab" d="M20 6h32v32H20z"/>
    <path fill="#bbc" d="M22 6h28v30H22z"/>
    <path fill="#ccd" d="M24 8h24v24H24z"/>
</svg>
