<svg xmlns="http://www.w3.org/2000/svg" width="294" height="228" fill="none" viewBox="0 0 294 228">
    <path fill="#dde" d="M27 184h267v44H27zM27 148h267v36H27zM9 112h285v36H9zM0 76h294v36H0zM18 40h276v36H18zM36 0h258v40H36z"/>
    <path fill="#eef" d="M28 185h264v41H28zM28 147h264v38H28zM10 111h282v36H10zM1 77h291v34H1zM19 41h273v36H19zM37 0h255v41H37z"/>
    <path fill="#fff" d="M29 186h261v36H29zM29 146h261v40H29zM11 110h279v36H11zM2 78h288v32H2zM20 42h270v36H20zM38 2h252v40H38z"/>
    <path fill="#778" d="M254 202h32v16h-32z"/>
    <path fill="#889" d="M256 202h28v14h-28z"/>
    <path fill="#99a" d="M258 204h24v8h-24z"/>
    <path fill="#778" d="M218 202h32v16h-32z"/>
    <path fill="#889" d="M220 202h28v14h-28z"/>
    <path fill="#99a" d="M222 204h24v8h-24z"/>
    <path fill="#778" d="M218 186h32v16h-32z"/>
    <path fill="#889" d="M220 186h28v14h-28z"/>
    <path fill="#99a" d="M222 188h24v8h-24z"/>
    <path fill="#778" d="M182 202h32v16h-32z"/>
    <path fill="#889" d="M184 202h28v14h-28z"/>
    <path fill="#99a" d="M186 204h24v8h-24z"/>
    <path fill="#778" d="M146 186h32v32h-32z"/>
    <path fill="#889" d="M148 186h28v30h-28z"/>
    <path fill="#99a" d="M150 188h24v24h-24z"/>
    <path fill="#778" d="M101 186h41v32h-41z"/>
    <path fill="#889" d="M103 186h37v30h-37z"/>
    <path fill="#99a" d="M105 188h33v24h-33z"/>
    <path fill="#778" d="M29 186h68v32H29z"/>
    <path fill="#889" d="M31 186h64v30H31z"/>
    <path fill="#99a" d="M33 188h60v24H33z"/>
    <path fill="#aab" d="M209 150h77v32h-77z"/>
    <path fill="#bbc" d="M211 150h73v30h-73z"/>
    <path fill="#ccd" d="M213 152h69v24h-69z"/>
    <path fill="#aab" d="M173 150h32v32h-32z"/>
    <path fill="#bbc" d="M175 150h28v30h-28z"/>
    <path fill="#ccd" d="M177 152h24v24h-24z"/>
    <path fill="#aab" d="M137 150h32v32h-32z"/>
    <path fill="#bbc" d="M139 150h28v30h-28z"/>
    <path fill="#ccd" d="M141 152h24v24h-24z"/>
    <path fill="#aab" d="M101 150h32v32h-32z"/>
    <path fill="#bbc" d="M103 150h28v30h-28z"/>
    <path fill="#ccd" d="M105 152h24v24h-24z"/>
    <path fill="#6bd" d="M65 150h32v32H65z"/>
    <path fill="#7ce" d="M67 150h28v30H67z"/>
    <path fill="#8df" d="M69 152h24v24H69z"/>
    <path fill="#aab" d="M29 150h32v32H29z"/>
    <path fill="#bbc" d="M31 150h28v30H31z"/>
    <path fill="#ccd" d="M33 152h24v24H33z"/>
    <path fill="#aab" d="M227 114h59v32h-59z"/>
    <path fill="#bbc" d="M229 114h55v30h-55z"/>
    <path fill="#ccd" d="M231 116h51v24h-51z"/>
    <path fill="#aab" d="M191 114h32v32h-32z"/>
    <path fill="#bbc" d="M193 114h28v30h-28z"/>
    <path fill="#ccd" d="M195 116h24v24h-24z"/>
    <path fill="#aab" d="M155 114h32v32h-32z"/>
    <path fill="#bbc" d="M157 114h28v30h-28z"/>
    <path fill="#ccd" d="M159 116h24v24h-24z"/>
    <path fill="#aab" d="M119 114h32v32h-32z"/>
    <path fill="#bbc" d="M121 114h28v30h-28z"/>
    <path fill="#ccd" d="M123 116h24v24h-24z"/>
    <path fill="#dc6" d="M83 114h32v32H83z"/>
    <path fill="#ed7" d="M85 114h28v30H85z"/>
    <path fill="#fe8" d="M87 116h24v24H87z"/>
    <path fill="#aab" d="M47 114h32v32H47z"/>
    <path fill="#bbc" d="M49 114h28v30H49z"/>
    <path fill="#ccd" d="M51 116h24v24H51z"/>
    <path fill="#bbc" d="M57 128h12v8H57z"/>
    <path fill="#fff" d="M59 130h8v4h-8z"/>
    <path fill="#aab" d="M11 114h32v32H11z"/>
    <path fill="#bbc" d="M13 114h28v30H13z"/>
    <path fill="#ccd" d="M15 116h24v24H15z"/>
    <path fill="#aab" d="M254 78h32v32h-32z"/>
    <path fill="#bbc" d="M256 78h28v30h-28z"/>
    <path fill="#ccd" d="M258 80h24v24h-24z"/>
    <path fill="#aab" d="M218 78h32v32h-32z"/>
    <path fill="#bbc" d="M220 78h28v30h-28z"/>
    <path fill="#ccd" d="M222 80h24v24h-24z"/>
    <path fill="#aab" d="M182 78h32v32h-32z"/>
    <path fill="#bbc" d="M184 78h28v30h-28z"/>
    <path fill="#ccd" d="M186 80h24v24h-24z"/>
    <path fill="#aab" d="M146 78h32v32h-32z"/>
    <path fill="#bbc" d="M148 78h28v30h-28z"/>
    <path fill="#ccd" d="M150 80h24v24h-24z"/>
    <path fill="#aab" d="M110 78h32v32h-32z"/>
    <path fill="#bbc" d="M112 78h28v30h-28z"/>
    <path fill="#ccd" d="M114 80h24v24h-24z"/>
    <path fill="#6a6" d="M74 78h32v32H74z"/>
    <path fill="#7b7" d="M76 78h28v30H76z"/>
    <path fill="#da4" d="M38 78h32v32H38z"/>
    <path fill="#eb5" d="M40 78h28v30H40z"/>
    <path fill="#fc6" d="M42 80h24v24H42z"/>
    <path fill="#aab" d="M2 78h32v32H2z"/>
    <path fill="#bbc" d="M4 78h28v30H4z"/>
    <path fill="#ccd" d="M6 80h24v24H6z"/>
    <path fill="#aab" d="M236 42h50v32h-50z"/>
    <path fill="#bbc" d="M238 42h46v30h-46z"/>
    <path fill="#ccd" d="M240 44h42v24h-42z"/>
    <path fill="#aab" d="M200 42h32v32h-32z"/>
    <path fill="#bbc" d="M202 42h28v30h-28z"/>
    <path fill="#ccd" d="M204 44h24v24h-24z"/>
    <path fill="#aab" d="M164 42h32v32h-32z"/>
    <path fill="#bbc" d="M166 42h28v30h-28z"/>
    <path fill="#ccd" d="M168 44h24v24h-24z"/>
    <path fill="#aab" d="M128 42h32v32h-32z"/>
    <path fill="#bbc" d="M130 42h28v30h-28z"/>
    <path fill="#ccd" d="M132 44h24v24h-24z"/>
    <path fill="#aab" d="M92 42h32v32H92z"/>
    <path fill="#bbc" d="M94 42h28v30H94z"/>
    <path fill="#aab" d="M56 42h32v32H56z"/>
    <path fill="#bbc" d="M58 42h28v30H58z"/>
    <path fill="#8c8" d="M78 80h24v24H78z"/>
    <path fill="#ccd" d="M96 44h24v24H96zM60 44h24v24H60z"/>
    <path fill="#aab" d="M20 42h32v32H20z"/>
    <path fill="#bbc" d="M22 42h28v30H22z"/>
    <path fill="#ccd" d="M24 44h24v24H24z"/>
    <path fill="#aab" d="M254 6h32v32h-32z"/>
    <path fill="#bbc" d="M256 6h28v30h-28z"/>
    <path fill="#ccd" d="M258 8h24v24h-24z"/>
    <path fill="#aab" d="M218 6h32v32h-32z"/>
    <path fill="#bbc" d="M220 6h28v30h-28z"/>
    <path fill="#ccd" d="M222 8h24v24h-24z"/>
    <path fill="#aab" d="M182 6h32v32h-32z"/>
    <path fill="#bbc" d="M184 6h28v30h-28z"/>
    <path fill="#ccd" d="M186 8h24v24h-24z"/>
    <path fill="#aab" d="M146 6h32v32h-32z"/>
    <path fill="#bbc" d="M148 6h28v30h-28z"/>
    <path fill="#ccd" d="M150 8h24v24h-24z"/>
    <path fill="#aab" d="M110 6h32v32h-32z"/>
    <path fill="#bbc" d="M112 6h28v30h-28z"/>
    <path fill="#ccd" d="M114 8h24v24h-24z"/>
    <path fill="#aab" d="M74 6h32v32H74z"/>
    <path fill="#bbc" d="M76 6h28v30H76z"/>
    <path fill="#ccd" d="M78 8h24v24H78z"/>
    <path fill="#aab" d="M38 6h32v32H38z"/>
    <path fill="#bbc" d="M40 6h28v30H40z"/>
    <path fill="#ccd" d="M42 8h24v24H42z"/>
</svg>
