<svg viewBox="0 0 560 240" width="560" height="240" fill="none" xmlns="http://www.w3.org/2000/svg">
    <path fill="#dde" d="M293 184h267v44H293zM293 148h267v36H293zM275 112h285v36H275zM266 76h294v36H266zM284 40h276v36H284zM302 0h258v40H302z"/>
    <path fill="#eef" d="M294 184h264v42H294zM294 147h264v37H294zM276 111h282v36H276zM267 77h291v34H267zM285 41h273v36H285zM303 0h255v41H303z"/>
    <path fill="#fff" d="M295 182h261v40H295zM295 146h261v36H295zM277 110h279v36H277zM268 78h288v32H268zM286 42h270v36H286zM304 2h252v40H304z"/>
    <path fill="#778" d="M520 202h32v16h-32z"/>
    <path fill="#889" d="M522 202h28v14h-28z"/>
    <path fill="#99a" d="M524 204h24v8h-24z"/>
    <path fill="#778" d="M484 202h32v16h-32z"/>
    <path fill="#889" d="M486 202h28v14h-28z"/>
    <path fill="#99a" d="M488 204h24v8h-24z"/>
    <path fill="#778" d="M484 186h32v16h-32z"/>
    <path fill="#889" d="M486 186h28v14h-28z"/>
    <path fill="#99a" d="M488 188h24v8h-24z"/>
    <path fill="#778" d="M448 202h32v16h-32z"/>
    <path fill="#889" d="M450 202h28v14h-28z"/>
    <path fill="#99a" d="M452 204h24v8h-24z"/>
    <path fill="#778" d="M412 186h32v32h-32z"/>
    <path fill="#889" d="M414 186h28v30h-28z"/>
    <path fill="#99a" d="M416 188h24v24h-24z"/>
    <path fill="#778" d="M367 186h41v32h-41z"/>
    <path fill="#889" d="M369 186h37v30h-37z"/>
    <path fill="#99a" d="M371 188h33v24h-33z"/>
    <path fill="#778" d="M295 186h68v32h-68z"/>
    <path fill="#889" d="M297 186h64v30h-64z"/>
    <path fill="#99a" d="M299 188h60v24h-60z"/>
    <path fill="#aab" d="M475 150h77v32h-77z"/>
    <path fill="#bbc" d="M477 150h73v30h-73z"/>
    <path fill="#ccd" d="M479 152h69v24h-69z"/>
    <path fill="#aab" d="M439 150h32v32h-32z"/>
    <path fill="#bbc" d="M441 150h28v30h-28z"/>
    <path fill="#ccd" d="M443 152h24v24h-24z"/>
    <path fill="#aab" d="M403 150h32v32h-32z"/>
    <path fill="#bbc" d="M405 150h28v30h-28z"/>
    <path fill="#ccd" d="M407 152h24v24h-24z"/>
    <path fill="#aab" d="M367 150h32v32h-32z"/>
    <path fill="#bbc" d="M369 150h28v30h-28z"/>
    <path fill="#ccd" d="M371 152h24v24h-24z"/>
    <path fill="#6bd" d="M331 150h32v32h-32z"/>
    <path fill="#7ce" d="M333 150h28v30h-28z"/>
    <path fill="#8df" d="M335 152h24v24h-24z"/>
    <path fill="#aab" d="M295 150h32v32h-32z"/>
    <path fill="#bbc" d="M297 150h28v30h-28z"/>
    <path fill="#ccd" d="M299 152h24v24h-24z"/>
    <path fill="#aab" d="M493 114h59v32h-59z"/>
    <path fill="#bbc" d="M495 114h55v30h-55z"/>
    <path fill="#ccd" d="M497 116h51v24h-51z"/>
    <path fill="#aab" d="M457 114h32v32h-32z"/>
    <path fill="#bbc" d="M459 114h28v30h-28z"/>
    <path fill="#ccd" d="M461 116h24v24h-24z"/>
    <path fill="#aab" d="M421 114h32v32h-32z"/>
    <path fill="#bbc" d="M423 114h28v30h-28z"/>
    <path fill="#ccd" d="M425 116h24v24h-24z"/>
    <path fill="#aab" d="M385 114h32v32h-32z"/>
    <path fill="#bbc" d="M387 114h28v30h-28z"/>
    <path fill="#ccd" d="M389 116h24v24h-24z"/>
    <path fill="#dc6" d="M349 114h32v32h-32z"/>
    <path fill="#ed7" d="M351 114h28v30h-28z"/>
    <path fill="#fe8" d="M353 116h24v24h-24z"/>
    <path fill="#aab" d="M313 114h32v32h-32z"/>
    <path fill="#bbc" d="M315 114h28v30h-28z"/>
    <path fill="#ccd" d="M317 116h24v24h-24z"/>
    <path fill="#bbc" d="M323 128h12v8h-12z"/>
    <path fill="#fff" d="M325 130h8v4h-8z"/>
    <path fill="#aab" d="M277 114h32v32h-32z"/>
    <path fill="#bbc" d="M279 114h28v30h-28z"/>
    <path fill="#ccd" d="M281 116h24v24h-24z"/>
    <path fill="#aab" d="M520 78h32v32h-32z"/>
    <path fill="#bbc" d="M522 78h28v30h-28z"/>
    <path fill="#ccd" d="M524 80h24v24h-24z"/>
    <path fill="#aab" d="M484 78h32v32h-32z"/>
    <path fill="#bbc" d="M486 78h28v30h-28z"/>
    <path fill="#ccd" d="M488 80h24v24h-24z"/>
    <path fill="#aab" d="M448 78h32v32h-32z"/>
    <path fill="#bbc" d="M450 78h28v30h-28z"/>
    <path fill="#ccd" d="M452 80h24v24h-24z"/>
    <path fill="#aab" d="M412 78h32v32h-32z"/>
    <path fill="#bbc" d="M414 78h28v30h-28z"/>
    <path fill="#ccd" d="M416 80h24v24h-24z"/>
    <path fill="#aab" d="M376 78h32v32h-32z"/>
    <path fill="#bbc" d="M378 78h28v30h-28z"/>
    <path fill="#ccd" d="M380 80h24v24h-24z"/>
    <path fill="#6a6" d="M340 78h32v32h-32z"/>
    <path fill="#7b7" d="M342 78h28v30h-28z"/>
    <path fill="#da4" d="M304 78h32v32h-32z"/>
    <path fill="#eb5" d="M306 78h28v30h-28z"/>
    <path fill="#fc6" d="M308 80h24v24h-24z"/>
    <path fill="#aab" d="M268 78h32v32h-32z"/>
    <path fill="#bbc" d="M270 78h28v30h-28z"/>
    <path fill="#ccd" d="M272 80h24v24h-24z"/>
    <path fill="#aab" d="M502 42h50v32h-50z"/>
    <path fill="#bbc" d="M504 42h46v30h-46z"/>
    <path fill="#ccd" d="M506 44h42v24h-42z"/>
    <path fill="#aab" d="M466 42h32v32h-32z"/>
    <path fill="#bbc" d="M468 42h28v30h-28z"/>
    <path fill="#ccd" d="M470 44h24v24h-24z"/>
    <path fill="#aab" d="M430 42h32v32h-32z"/>
    <path fill="#bbc" d="M432 42h28v30h-28z"/>
    <path fill="#ccd" d="M434 44h24v24h-24z"/>
    <path fill="#aab" d="M394 42h32v32h-32z"/>
    <path fill="#bbc" d="M396 42h28v30h-28z"/>
    <path fill="#ccd" d="M398 44h24v24h-24z"/>
    <path fill="#aab" d="M358 42h32v32h-32z"/>
    <path fill="#bbc" d="M360 42h28v30h-28z"/>
    <path fill="#aab" d="M322 42h32v32h-32z"/>
    <path fill="#bbc" d="M324 42h28v30h-28z"/>
    <path fill="#8c8" d="M344 80h24v24h-24z"/>
    <path fill="#ccd" d="M362 44h24v24h-24zM326 44h24v24h-24z"/>
    <path fill="#aab" d="M286 42h32v32h-32z"/>
    <path fill="#bbc" d="M288 42h28v30h-28z"/>
    <path fill="#ccd" d="M290 44h24v24h-24z"/>
    <path fill="#aab" d="M520 6h32v32h-32z"/>
    <path fill="#bbc" d="M522 6h28v30h-28z"/>
    <path fill="#ccd" d="M524 8h24v24h-24z"/>
    <path fill="#aab" d="M484 6h32v32h-32z"/>
    <path fill="#bbc" d="M486 6h28v30h-28z"/>
    <path fill="#ccd" d="M488 8h24v24h-24z"/>
    <path fill="#aab" d="M448 6h32v32h-32z"/>
    <path fill="#bbc" d="M450 6h28v30h-28z"/>
    <path fill="#ccd" d="M452 8h24v24h-24z"/>
    <path fill="#aab" d="M412 6h32v32h-32z"/>
    <path fill="#bbc" d="M414 6h28v30h-28z"/>
    <path fill="#ccd" d="M416 8h24v24h-24z"/>
    <path fill="#aab" d="M376 6h32v32h-32z"/>
    <path fill="#bbc" d="M378 6h28v30h-28z"/>
    <path fill="#ccd" d="M380 8h24v24h-24z"/>
    <path fill="#aab" d="M340 6h32v32h-32z"/>
    <path fill="#bbc" d="M342 6h28v30h-28z"/>
    <path fill="#ccd" d="M344 8h24v24h-24z"/>
    <path fill="#aab" d="M304 6h32v32h-32z"/>
    <path fill="#bbc" d="M306 6h28v30h-28z"/>
    <path fill="#ccd" d="M308 8h24v24h-24z"/>
    <path fill="#dde" d="M0 196h267v44H0zM0 160h267v36H0zM0 124h249v36H0zM0 88h240v36H0zM0 52h258v36H0zM0 12h276v40H0V12"/>
    <path fill="#eef" d="M2 197h264v41H2zM2 161h264v36H2zM2 125h246v36H2zM2 87h237v38H2zM2 51h255v36H2zM2 12h273v39H2z"/>
    <path fill="#fff" d="M4 198h261v36H4zM4 126h243v36H4zM4 86h234v40H4zM4 50h252v36H4zM4 14h270v36H4zM265 198H4v-36h261z"/>
    <path fill="#778" d="M161 198h104v32H161z"/>
    <path fill="#889" d="M163 198h100v30H163z"/>
    <path fill="#99a" d="M165 200h96v24h-96z"/>
    <path fill="#778" d="M116 198h41v32h-41z"/>
    <path fill="#889" d="M118 198h37v30h-37z"/>
    <path fill="#99a" d="M120 200h33v24h-33z"/>
    <path fill="#778" d="M80 198h32v32H80z"/>
    <path fill="#889" d="M82 198h28v30H82z"/>
    <path fill="#99a" d="M84 200h24v24H84z"/>
    <path fill="#778" d="M44 198h32v32H44z"/>
    <path fill="#889" d="M46 198h28v30H46z"/>
    <path fill="#99a" d="M48 200h24v24H48z"/>
    <path fill="#778" d="M8 198h32v32H8z"/>
    <path fill="#889" d="M10 198h28v30H10z"/>
    <path fill="#99a" d="M12 200h24v24H12z"/>
    <path fill="#aab" d="M8 162h77v32H8z"/>
    <path fill="#bbc" d="M10 162h73v30H10z"/>
    <path fill="#ccd" d="M12 164h69v24H12z"/>
    <path fill="#58b" d="M233 162h32v32h-32z"/>
    <path fill="#69c" d="M235 162h28v30h-28z"/>
    <path fill="#7ad" d="M237 164h24v24h-24z"/>
    <path fill="#aab" d="M197 162h32v32h-32z"/>
    <path fill="#bbc" d="M199 162h28v30h-28z"/>
    <path fill="#ccd" d="M201 164h24v24h-24z"/>
    <path fill="#aab" d="M161 162h32v32h-32z"/>
    <path fill="#bbc" d="M163 162h28v30h-28z"/>
    <path fill="#ccd" d="M165 164h24v24h-24z"/>
    <path fill="#aab" d="M125 162h32v32h-32z"/>
    <path fill="#bbc" d="M127 162h28v30h-28z"/>
    <path fill="#ccd" d="M129 164h24v24h-24z"/>
    <path fill="#aab" d="M89 162h32v32H89z"/>
    <path fill="#bbc" d="M91 162h28v30H91z"/>
    <path fill="#ccd" d="M93 164h24v24H93z"/>
    <path fill="#aab" d="M215 126h32v32h-32z"/>
    <path fill="#bbc" d="M217 126h28v30h-28z"/>
    <path fill="#ccd" d="M219 128h24v24h-24z"/>
    <path fill="#d66" d="M179 126h32v32h-32z"/>
    <path fill="#e77" d="M181 126h28v30h-28z"/>
    <path fill="#f88" d="M183 128h24v24h-24z"/>
    <path fill="#e77" d="M189 140h12v8h-12z"/>
    <path fill="#fff" d="M191 142h8v4h-8z"/>
    <path fill="#aab" d="M143 126h32v32h-32z"/>
    <path fill="#bbc" d="M145 126h28v30h-28z"/>
    <path fill="#ccd" d="M147 128h24v24h-24z"/>
    <path fill="#aab" d="M107 126h32v32h-32z"/>
    <path fill="#bbc" d="M109 126h28v30h-28z"/>
    <path fill="#ccd" d="M111 128h24v24h-24z"/>
    <path fill="#aab" d="M71 126h32v32H71z"/>
    <path fill="#bbc" d="M73 126h28v30H73z"/>
    <path fill="#ccd" d="M75 128h24v24H75z"/>
    <path fill="#aab" d="M8 126h59v32H8z"/>
    <path fill="#bbc" d="M10 126h55v30H10z"/>
    <path fill="#ccd" d="M12 128h51v24H12z"/>
    <path fill="#aab" d="M206 90h32v32h-32z"/>
    <path fill="#bbc" d="M208 90h28v30h-28z"/>
    <path fill="#ccd" d="M210 92h24v24h-24z"/>
    <path fill="#b6b" d="M170 90h32v32h-32z"/>
    <path fill="#c7c" d="M172 90h28v30h-28z"/>
    <path fill="#d8d" d="M174 92h24v24h-24z"/>
    <path fill="#aab" d="M134 90h32v32h-32z"/>
    <path fill="#bbc" d="M136 90h28v30h-28z"/>
    <path fill="#ccd" d="M138 92h24v24h-24z"/>
    <path fill="#aab" d="M98 90h32v32H98z"/>
    <path fill="#bbc" d="M100 90h28v30h-28z"/>
    <path fill="#ccd" d="M102 92h24v24h-24z"/>
    <path fill="#aab" d="M62 90h32v32H62z"/>
    <path fill="#bbc" d="M64 90h28v30H64z"/>
    <path fill="#ccd" d="M66 92h24v24H66z"/>
    <path fill="#aab" d="M8 90h50v32H8z"/>
    <path fill="#bbc" d="M10 90h46v30H10z"/>
    <path fill="#ccd" d="M12 92h42v24H12z"/>
    <path fill="#aab" d="M224 54h32v32h-32z"/>
    <path fill="#bbc" d="M226 54h28v30h-28z"/>
    <path fill="#ccd" d="M228 56h24v24h-24z"/>
    <path fill="#aab" d="M188 54h32v32h-32z"/>
    <path fill="#bbc" d="M190 54h28v30h-28z"/>
    <path fill="#ccd" d="M192 56h24v24h-24z"/>
    <path fill="#aab" d="M152 54h32v32h-32z"/>
    <path fill="#bbc" d="M154 54h28v30h-28z"/>
    <path fill="#ccd" d="M156 56h24v24h-24z"/>
    <path fill="#aab" d="M116 54h32v32h-32z"/>
    <path fill="#bbc" d="M118 54h28v30h-28z"/>
    <path fill="#ccd" d="M120 56h24v24h-24z"/>
    <path fill="#aab" d="M80 54h32v32H80z"/>
    <path fill="#bbc" d="M82 54h28v30H82z"/>
    <path fill="#ccd" d="M84 56h24v24H84z"/>
    <path fill="#aab" d="M44 54h32v32H44z"/>
    <path fill="#bbc" d="M46 54h28v30H46z"/>
    <path fill="#ccd" d="M48 56h24v24H48z"/>
    <path fill="#aab" d="M8 54h32v32H8z"/>
    <path fill="#bbc" d="M10 54h28v30H10z"/>
    <path fill="#ccd" d="M12 56h24v24H12z"/>
    <path fill="#aab" d="M242 18h32v32h-32z"/>
    <path fill="#bbc" d="M244 18h28v30h-28z"/>
    <path fill="#ccd" d="M246 20h24v24h-24z"/>
    <path fill="#aab" d="M206 18h32v32h-32z"/>
    <path fill="#bbc" d="M208 18h28v30h-28z"/>
    <path fill="#ccd" d="M210 20h24v24h-24z"/>
    <path fill="#aab" d="M170 18h32v32h-32z"/>
    <path fill="#bbc" d="M172 18h28v30h-28z"/>
    <path fill="#ccd" d="M174 20h24v24h-24z"/>
    <path fill="#aab" d="M134 18h32v32h-32z"/>
    <path fill="#bbc" d="M136 18h28v30h-28z"/>
    <path fill="#ccd" d="M138 20h24v24h-24z"/>
    <path fill="#aab" d="M98 18h32v32H98z"/>
    <path fill="#bbc" d="M100 18h28v30h-28z"/>
    <path fill="#ccd" d="M102 20h24v24h-24z"/>
    <path fill="#aab" d="M62 18h32v32H62z"/>
    <path fill="#bbc" d="M64 18h28v30H64z"/>
    <path fill="#ccd" d="M66 20h24v24H66z"/>
    <path fill="#aab" d="M8 18h50v32H8z"/>
    <path fill="#bbc" d="M10 18h46v30H10z"/>
    <path fill="#ccd" d="M12 20h42v24H12z"/>
</svg>
